<svg xmlns="http://www.w3.org/2000/svg" viewBox="0 0 62.1 62.85"><defs><style>.cls-1{fill:#212121;}</style></defs><title>steam_black</title><g id="Layer_2" data-name="Layer 2"><g id="Layer_1-2" data-name="Layer 1"><g id="black"><path id="_Path_" data-name="&lt;Path&gt;" class="cls-1" d="M62.1,31.18A31.44,31.44,0,0,1,35.24,62.54,31.06,31.06,0,0,1,3.47,46.22a33.9,33.9,0,0,1-2.14-5.09c-.09-.26-.29-.57,0-.81s.49,0,.72.1c3.4,1.41,6.8,2.84,10.21,4.22a1.76,1.76,0,0,1,1,1.3,8.79,8.79,0,0,0,17.16-2.44A1.47,1.47,0,0,1,31,42.3q4.64-3.31,9.25-6.65a2.49,2.49,0,0,1,1.43-.5A11.8,11.8,0,1,0,29.52,22.71a2.23,2.23,0,0,1-.33,1.23q-3.35,4.87-6.68,9.76a1.45,1.45,0,0,1-1.28.71,8.28,8.28,0,0,0-4.11,1.17,1.23,1.23,0,0,1-1.22,0C11,33.54,6,31.47,1.08,29.45A1.45,1.45,0,0,1,0,27.64,31,31,0,0,1,9.49,8.72a30.66,30.66,0,0,1,39.19-3C56.85,11.44,61.23,19.48,62,29.47,62,30.13,62.07,30.79,62.1,31.18Z"/><path id="_Compound_Path_" data-name="&lt;Compound Path&gt;" class="cls-1" d="M49,23.37a7.83,7.83,0,1,1-7.79-7.93A7.92,7.92,0,0,1,49,23.37Zm-7.82-5.9a5.78,5.78,0,0,0-5.83,5.86,5.83,5.83,0,1,0,11.67,0A5.76,5.76,0,0,0,41.21,17.47Z"/><path id="_Path_2" data-name="&lt;Path&gt;" class="cls-1" d="M15.71,46.15l3.41,1.39a4.89,4.89,0,1,0,3.71-9l-3.28-1.37c.94-.91,3.35-.77,5.23.24a6.77,6.77,0,0,1,3.29,7,6.67,6.67,0,0,1-5.66,5.4A6.33,6.33,0,0,1,15.71,46.15Z"/></g></g></g></svg>