<svg version="1" xmlns="http://www.w3.org/2000/svg" width="960" height="960" viewBox="0 0 720.000000 720.000000"><path d="M368.9 42.4C356.5 45.7 353.4 53 355 75.1l.5 7.6-5.5 2.9c-65.2 33.5-109.4 97-118.6 170.4-2.1 17.5-.9 50.6 2.6 66.5.5 2.2 1.1 5.4 1.4 7.1.3 1.7 1.7 7.1 3.1 12 14 48.6 43.9 90.7 85 119.5 7.5 5.3 15 9.9 16 9.9.3 0-.6-2.5-2-5.5-5.7-13-5.2-25.3 1.5-35.1l2.9-4.1-3-4.4c-4.1-6.2-6.4-14.1-5-18 1-2.8 3.3-5.9 4.5-5.9.2 0 1.7-.5 3.1-1l2.7-1-3.8-3.1c-5.1-4.1-6.1-5.9-4-7.4 1.5-1.1 1.5-1.5 0-5.1-6-14.2-9.1-34.7-6.5-42.6 1.6-4.9 4.8-8.4 9.4-10.3 2.8-1.1 3.7-2 3.3-3.3-.2-.9-.7-3.7-1.1-6.2-1.2-8.2-1.4-9.5-2-13.7-1.6-11.2-.5-33 1.6-31.7.5.3 28.8.5 62.8.5h62l-.4 3.7c-.9 7.4-.6 20.8.5 25.5 2.4 10.7 9.2 19 20.2 24.5 12.4 6.3 23.6 6.5 35.3.6 7.9-3.9 10.4-5.9 15.6-12.4 5.6-6.9 7.4-12.9 7.4-24 0-5.2-.2-11.1-.5-13-.5-3.1-.3-3.4 2-3.6 17.8-1.3 17.8-1.3 18.5.4.3.9.9 5 1.2 9.2.5 6.5.2 8.4-1.6 12.5-1.2 2.8-3.1 5.9-4.2 7.1l-2 2.2 2.5 7.3c6.7 19.7 6.7 34.7 0 43.5l-3.4 4.5 2.4 4.2c2.9 4.8 3.7 9.3 2.4 12.3-1.2 2.5-5.8 5.4-8.7 5.4-1.8 0-1.9.3-1.1 2.5 1.4 3.8-1.2 5.9-6.5 5.1l-4.2-.5 4.3 4.7c5.7 6.2 9.6 13.5 9.6 18 0 2.9-.7 4.3-3.6 6.9-3.1 2.9-3.4 3.6-2.6 5.8 1.5 4 5.9 22.9 6.6 28.7.4 2.9.7 7.8.7 10.8 0 3-.1 36.4-.2 74.1l-.1 68.6-161.2.1c-88.7 0-162.3.1-163.5.1-2.1.1-2.1.2-2.1 24.6 0 19.3.3 24.5 1.3 24.5.7 0 1.5-.6 1.7-1.3.2-.6.4-11 .3-23V611h5.5c3-.1 76.5-.1 163.3-.1H559V472.2l6.8-4.2c7.2-4.6 18.9-13 23.6-17 25.6-22 41.1-41.3 55.7-69.5 10.7-20.6 16.6-38.2 21.3-63.1 1.7-8.6 2.9-24.2 2.8-36.9 0-15.6-.4-20.6-2.7-36-3.3-22.5-12.9-49.8-25.3-72-13.1-23.6-35.2-49.1-57.1-65.9-8.2-6.3-19.7-13.7-33.3-21.6-1.2-.7-1.6-1.9-1.2-4.2.9-7.2 1-20.4.1-24.7-1.2-5.9-4.7-10.5-10-13.4l-4.2-2.2-81-.2c-60.3-.1-82.2.2-85.6 1.1zM332 175.8c11.6 5.9 23.6 12.7 27.8 16 2.4 1.9 2.7 3.4 3.6 20.7l.4 7H541l.1-2.5c0-1.4.2-4.1.4-6 .2-1.9.6-6.9.8-11l.5-7.5 5.3-4.7c6.9-6.3 16.6-10.9 23.1-11.1l5.1-.2 2.3 6.5c7.4 21.4 7.3 42.2-.3 56.2-3.6 6.5-5 7.6-4.7 3.5.4-5.5-1.9-9.3-6.2-10.4-2.5-.6-45.2-.9-113.9-.9-118.5.1-113.9-.1-116.4 5.2-.6 1.4-1.4 5-1.8 8.1l-.6 5.7-3.1-3.6c-9.8-11.3-16.5-29-17-44.8-.4-11.6 3-32 5.2-32 .4 0 5.9 2.6 12.2 5.8zm192.7 99.5c5.4 2.9 6.8 6 6.8 15.2-.1 6.3-.6 8.9-2.4 12.4-6.7 12.8-23 19-35.1 13.2-16.6-7.8-22.8-30.6-10.6-38.9 5.4-3.7 8.2-4.2 23.6-3.9 11.5.2 15.2.6 17.7 2z"/><path d="M499.8 283.7c-2.4.6-2.3 2 .2 2.8 1.4.4 2 1.5 2 3.4 0 3.3-1.3 4.6-5.4 5.7-2.3.6-3.2.2-4.7-1.7-2.3-3.1-3.4-1.9-3.3 3.6.2 5.2 3 10.5 6.5 12.2 3.8 1.8 9.6 2.4 12.5 1.3 2.5-1 2.6-1.2 1-2.9-3.4-3.8-.8-6.5 3-3l2.4 2.2 1.5-3.6c3.9-9.5-1.1-19-10.5-20-1.9-.2-4.3-.2-5.2 0zM399.8 282.8c-3.2.4-3.7 1.7-.9 2.5 1 .2 2.4 1.4 3 2.5 1.5 2.9-2 7.2-6 7.2-2.5 0-3-.5-3.5-3-.9-4.1-2.2-3.8-3.1.7-1 5.2-.5 10.3 1.3 13.1 2.3 3.5 9.2 6.2 14.3 5.7 5.5-.6 6.4-1.2 5.1-3.5-1.4-2.6-1.3-3.7.5-4.4.9-.3 2 .4 2.9 2.1l1.3 2.6 1.9-2.8c4.1-6.2 1.4-17.3-4.9-20.7-2.8-1.5-8.4-2.4-11.9-2zM445.4 322.1c-4.8 1.4-6 3.3-4 6.4 2.1 3.2 7.4 6.5 10.4 6.5 5 0 13.2-6 13.2-9.6 0-3.3-12.6-5.4-19.6-3.3z"/><path d="M425.4 329c-5.7 1.3-12.7 5.3-20.6 11.8-14.3 11.5-23.6 12.9-25.4 3.7-.7-4.2-2-4.5-3.6-.9-1 2.2-.9 3.2 1.1 7 1.9 3.6 3.6 5 8.8 7.6 13.2 6.5 30.3 3.6 42.2-7.2 5.7-5.2 9.7-5.9 16.5-3.1 6.5 2.7 10.6 2.7 15.8 0 6.6-3.4 10-2.8 15.8 2.5 10.5 9.3 24.1 13.2 35.9 10.2 6.5-1.7 14.4-6.3 16.1-9.6 2-3.7.9-10-1.6-10-1 0-1.3.8-1 2.5 1.1 5.7-8.3 8.6-15.7 4.9-3.6-1.9-9.8-6.5-13.9-10.4-1.5-1.4-5.7-4-9.2-5.8-11-5.5-21.2-4.1-30.4 4.3l-4.1 3.7-3.6-3.6c-6.5-6.5-15.2-9.4-23.1-7.6zM56.5 357.9c-.3.2-.5 26.5-.5 58.3V474h7c6 0 7-.3 7.1-1.8.4-9.1-.1-84.9-.6-87.4-.9-4.4.7-2.6 2.9 3.2 1 2.5 4.2 9.2 7.3 14.9 3 5.8 8.3 15.7 11.6 22 9.4 17.9 10.4 19.3 13.5 18.9 2.9-.3 3.1-.6 22.1-33.8 5.9-10.2 11.2-20.4 11.9-22.8.7-2.3 1.7-4.2 2.3-4.2.6 0 .7.5.4 1-.4.6-.7 43.5-.7 95.3-.1 93.9-.1 94.3 2 98.2 3.4 6.4 9.4 9.4 17.5 8.9 6-.4 6.4-.8 6.5-6.3.2-4.7 0-5.1-2.2-5.1-3.8 0-5.6-1-7.1-4.1-1.3-2.4-1.5-17.6-1.5-108.1V357.4l-7 .1c-7.9.1-8.3.3-12.6 8.5-1.6 3-3.2 5.6-3.6 5.8-.5.2-.8.7-.8 1.2 0 .4-2 4.3-4.4 8.6-2.4 4.4-5.6 10.1-7.1 12.9-1.5 2.7-4.5 7.9-6.5 11.5-2.1 3.6-5 9.2-6.5 12.5l-2.8 5.9-2-5.4c-1.1-3-2.8-6.9-3.7-8.5-.9-1.7-5.9-11.1-11-21-5.2-9.9-11.1-21.2-13.1-25l-3.6-7h-7.2c-4-.1-7.4.1-7.6.4zM225.1 391c-4.4 1-8 3.8-11 8.3l-2.5 3.7-1.2-2.8c-2.4-5.9-11.6-9.3-19.2-7.3-2.2.6-2.6 1.3-2.7 5-.1 3.8 1.2 6.1 3.5 5.9 2-.2 5 1.7 5.6 3.5.5 1.2.8 16.6.8 34.2l.1 32 7.1.3 7.1.3.1-26.5c0-27.1.4-33.2 2.8-37.7 1.9-3.8 6.8-5.8 13.7-5.6 3.2.1 6.2-.3 6.7-.8.4-.6 1.1-3.1 1.5-5.7.6-3.9.4-4.8-1.1-5.6-3-1.5-7.6-2-11.3-1.2zM411.2 407.3c-4.1 4.3-5.2 22-1.9 28.4 2.2 4.2 4.8 5.5 10.5 5.2 5.6-.3 10.7-2.6 14.6-6.8 2.7-2.8 3.5-3.1 9.3-3.1 5.9 0 6.6.2 10 3.6 4.8 4.5 9.3 6.4 15.2 6.4 9.7 0 13.3-8.9 10.7-26.2-.4-2.8-1.7-5.7-3.2-7.3-2.2-2.4-3.1-2.7-6.8-2.3-2.6.3-6.8 2.1-10.6 4.4-5.7 3.5-6.8 3.8-14.3 4-7.8.2-8.4 0-16.4-4.2-9.5-5.1-13.8-5.6-17.1-2.1zM255.3 455.1c-6.5 1.9-9.6 10.8-5.7 16.6 4.2 6.5 15.4 5.9 18.7-.8 1.7-3.7 1.2-9.7-1.1-12.3-1.4-1.6-7.5-4.8-8.4-4.5-.2 0-1.7.5-3.5 1z"/><path d="M71.7 503c-11.3 2.8-19.6 12.3-19.7 22.2v3.8l6.2-.4c6.1-.3 6.2-.4 7.1-3.7 2-7.8 7.8-11.6 16.4-10.6 8.1.9 11.3 6.2 11.3 18.7v6.5l-15.2 3.7c-23.9 5.8-28 8.9-28.1 21.2-.1 11.7 6.5 20.5 17.2 22.7 9.9 2 20.2-1.2 25.3-8.1l2.2-3 2 3.7c3 5.2 7.8 7.5 14.8 7 3.2-.2 6-.6 6.4-.9.5-.6.8-4.9.5-9.1-.1-1.2-.9-1.7-3-1.7-1.6 0-3.9-.8-5.2-1.9-2.3-1.8-2.3-2.1-2.5-26.2-.2-26.2-.8-29.8-5.8-36.3-5-6.6-19.2-10.2-29.9-7.6zm21.1 54c-.6 12.6-4.6 18.3-13.8 19.5-8.3 1-14.4-4.3-14.8-12.8-.4-6.5 2.2-8.5 15.5-12.3 5.9-1.6 11.4-3 12.2-3 1-.1 1.2 1.7.9 8.6zM226.5 503.8c-3.1 1-6.9 3.5-9.7 6.3l-4.8 4.5-1.8-3.5c-3-5.7-12-8.9-19-6.6-1.9.5-2.2 1.4-2.2 5.6 0 4.8.1 4.9 3 4.9 1.7 0 3.7.9 4.9 2.1 1.8 2 1.9 4.3 1.9 68.7.1 36.7.1 67.7.1 68.9.1 2 .5 2.1 6.9 2l6.7-.2.3-39.8.2-39.8 3.3 3.2c5.1 5.1 11 7.4 19.7 7.4s13.6-2 18.8-7.4c7.2-7.6 8.9-15.2 8.6-39.1-.2-17.4-1-21.7-5.7-28.6-6-8.9-19.4-12.6-31.2-8.6zm14.1 12.1c3.1 1.4 4.6 3 6.3 6.5 2 4.4 2.2 6.1 2.1 22.6-.2 16.3-.4 18.3-2.3 22.1-4 7.7-10.7 10.3-20.6 7.9-5.1-1.2-9.8-5.2-11.8-10.1-.7-1.5-1.2-9.9-1.3-19.7-.1-14.2.2-17.7 1.6-20.4 4.7-9.1 16.6-13.2 26-8.9zM314.5 503.7c-9.8 3-16.8 10.5-17.9 19.4-.6 5.2.4 6.2 5.5 5.6 2.4-.3 4.9-.6 5.6-.6.7-.1 1.7-1.8 2.3-3.9 1.3-4.8 1.8-5.5 6-8.1 6.8-4.1 16.4-2 19.3 4.2 1.6 3.4 2.8 14.4 2 17.7-.3 1.1-4.5 2.6-14.1 4.9-25.5 6.3-29.9 9.7-29 23.1 1 14.2 10 22.1 24.4 21.6 8-.3 14.5-3.6 18.6-9.5l1.7-2.4 1.7 3.5c3 6.4 12.5 9.6 19.8 6.8 2.3-.8 2.6-1.5 2.6-6v-5h-3.5c-4.2 0-7.5-2.9-7.6-6.8 0-1.5-.2-12.8-.3-25.2-.2-18.4-.6-23.2-1.9-26.2-2.5-5.5-7.2-10.4-12-12.3-5.7-2.3-16.9-2.7-23.2-.8zm22.7 45.5c.8 2.2 0 13.7-1.2 17.3-2.5 7.4-11.5 12-18.9 9.5-6.3-2-10.2-10.5-8-17 1.2-3.3 4.9-5.1 17.9-8.5 10.4-2.8 9.7-2.8 10.2-1.3zM410.1 503.5c-9.5 2.7-15.3 8.2-18.8 17.9-2.1 5.6-2.2 7.6-2 25.7l.2 19.5 3 5.9c5.3 10.3 15.7 15.6 30 15.1 12.2-.4 21.6-6.5 24.9-16.3 1.7-5 2.1-9.2.9-9.4-.5 0-3.1-.3-6-.5l-5.2-.4-1.1 3.9c-1.1 4.3-6.4 9.7-10.6 10.7-3.8 1-11.5-.4-14.4-2.4-1.4-1-3.6-4-5-6.8-2.3-4.6-2.5-5.8-2.5-21.9 0-15.8.2-17.3 2.3-21.7 6.7-13.6 29.3-10.6 30.1 4 .1 1 1.6 1.2 6.4.8 3.4-.2 6.4-.5 6.5-.5.9-.2-.7-8-2.3-11.4-2.2-4.7-8.2-10-13.2-11.6-6.2-2-17.2-2.3-23.2-.6zM496.5 503.4c-11.6 3.6-17.8 10.6-18.6 21.1l-.4 4h4.7c6.8.1 8.4-.8 9.2-4.9 1.3-6.6 8.5-10.4 17.2-9.1 3.8.5 4.9 1.3 7.1 4.6 2.2 3.4 2.6 5.1 2.7 12l.1 8.1-5 1.4c-2.7.7-6.3 1.6-8 1.9-1.6.3-7.5 1.9-12.9 3.6-12.3 3.8-16 6.9-17 14.4-2.1 15.3 6.6 26.5 21.2 27.1 8.1.4 14.4-1.9 19.3-7l4.3-4.4 1.5 3.1c2.4 4.6 6.3 7 12.4 7.5 7.7.6 9.2-.5 9.4-6.7l.2-5.1h-3.3c-1.8 0-4.1-.8-5.3-2-2.1-1.9-2.2-2.9-2.3-25.2-.1-31.8-1.7-36.9-13.5-43.1-4.8-2.5-17-3.2-23-1.3zm22.3 52.3c-.6 9.8-2.8 15.1-7.4 18.2-9.4 6.4-21.4.9-21.6-9.8-.1-6.5 2.1-8.7 11.5-11.5 7.5-2.3 14.8-4.2 17.1-4.5.5-.1.6 3.4.4 7.6zM253 624.2c-4.4 3-5.7 6.9-5.5 16.7.2 8.9 2.6 13.5 7.9 14.8 11.2 2.7 17.6-2.7 17.2-14.7l-.1-4.4-5.5-.1c-7.5-.1-8.7.3-8.4 2.8.1 1.2.3 2.5.3 2.9.1.5 1.5.8 3.1.8 2.5 0 3 .4 3 2.5 0 3.4-4.3 5.2-7.5 3.1-1.9-1.2-2.2-2.4-2.4-8.6-.2-5.6.2-7.6 1.5-9.1 2.5-2.8 6.2-2.5 7.4.6.8 2 1.6 2.5 4.6 2.5 3.6 0 3.6-.1 3-3.3-1.5-7.7-11.6-11.2-18.6-6.5zM381.8 624c-.2.8-.4 8.2-.3 16.5v15l3.8.2 3.7.1v-9.1l.1-9.2 2.4 4c3.6 5.8 5.6 6.1 8.6 1.4 1.3-2.1 2.7-3.9 3-3.9.4 0 .6 3.4.6 7.6-.2 8.4.5 9.6 5 9.2l3-.2v-16.3l.1-16.3h-3.3c-2.9 0-3.7.7-7.5 6.5l-4.3 6.6-4.6-6.8c-3.7-5.5-5.1-6.8-7.3-6.8-1.6-.1-2.8.5-3 1.5zM457 639.1v16.6h10.5l10.5.1V648.5l-6.5.2-6.5.2V642.2l5.8.1 5.7.2.3-3.9.3-3.8-6 .4-6.1.4v-2.8c0-3 .1-3 9.3-3 3.6 0 3.7-.1 3.7-3.4 0-2-.5-3.4-1.2-3.5-.7 0-5.5-.1-10.5-.2l-9.3-.2v16.6zM526.5 622.9c-5.3 2.2-7.6 9.3-4.7 14.3.9 1.5 3.2 3.5 5.2 4.3 8.8 3.9 10.5 5.6 7.1 7.4-2.8 1.5-6.7-.2-7.5-3.2-.5-2.1-1.1-2.5-3.8-2.3-3.8.3-4.3 2.2-1.9 7.3 2.2 4.9 9.2 7.1 15.6 5 2.7-.9 6.3-4 6.6-5.6 1.1-6.8-1.4-10.8-8.6-13.5-6.6-2.6-8.6-7.6-3-7.6 2.5 0 4.6 2.6 3.8 4.7-.3.7.9 1 3.4.8 4.3-.2 5.2-1.9 3.3-6.5-2-4.7-9.9-7.3-15.5-5.1zM321.3 624.4c.4.9-1.8 7.9-4.8 15.7-3 7.7-5.5 14.4-5.5 14.9 0 .4 1.6.8 3.6.8 3.1 0 3.8-.4 5-3.4 1.3-3.2 1.7-3.4 6.3-3.4s4.9.2 5.7 3.2c.9 2.9 1.4 3.2 5.2 3.5 2.3.1 4.2-.1 4.2-.5-.1-.4-2.7-7.7-5.8-16.2l-5.7-15.5-4.4-.3c-3.6-.3-4.3-.1-3.8 1.2zm6.2 15.3c.5 2 .3 2.3-1.8 2.3-2.4 0-2.5-.2-1.4-3 1.2-3.1 2-2.9 3.2.7z"/></svg>